<svg xmlns="http://www.w3.org/2000/svg" viewBox="0 0 1243.18 1859.8"><g id="Layer_2" data-name="Layer 2"><g id="Layer_2-2" data-name="Layer 2"><polygon points="1113.89 0 487.33 547 467.44 1064.16 1113.89 0" style="fill:#fff"/><polygon points="258.58 696.18 457.49 527.11 447.55 636.51 258.58 696.18" style="fill:#fff"/><polygon points="477.38 1094 656.4 825.47 726.02 994.54 477.38 1094" style="fill:#fff"/><polygon points="0 944.82 377.93 1094 228.75 1143.73 0 944.82" style="fill:#fff"/><polygon points="29.84 924.93 447.55 1094 447.55 656.4 248.64 735.96 29.84 924.93" style="fill:#fff"/><polygon points="248.64 1173.56 318.25 1243.18 387.87 1133.78 248.64 1173.56" style="fill:#fff"/><polygon points="377.93 1213.35 437.6 1263.07 497.27 1203.4 437.6 1123.84 377.93 1213.35" style="fill:#fff"/><polygon points="477.38 1113.89 527.11 1183.51 716.07 1024.38 477.38 1113.89" style="fill:#fff"/><polygon points="1243.18 596.73 447.55 1282.96 1113.89 1859.8 845.36 1263.07 1243.18 596.73" style="fill:#fff"/></g></g></svg>